HIERARCHY
ROOT Hips
{
	OFFSET	0.000000	0.000000	0.000000
	CHANNELS	6	Xposition	Yposition	Zposition	Zrotation	Xrotation	Yrotation
	JOINT LeftHip
	{
		OFFSET	15.500000	-8.200000	0.000000
		CHANNELS	3	Zrotation	Xrotation	Yrotation
		JOINT LeftKnee
		{
			OFFSET	0.000000	-41.000000	0.000000
			CHANNELS	3	Zrotation	Xrotation	Yrotation
			JOINT LeftAnkle
			{
				OFFSET	0.000000	-41.500000	0.000000
				CHANNELS	3	Zrotation	Xrotation	Yrotation
				End Site
				{
					OFFSET	0.000000	0.000000	22.875000
				}
			}
		}
	}
	JOINT RightHip
	{
		OFFSET	-15.500000	-8.200000	0.000000
		CHANNELS	3	Zrotation	Xrotation	Yrotation
		JOINT RightKnee
		{
			OFFSET	0.000000	-41.000000	0.000000
			CHANNELS	3	Zrotation	Xrotation	Yrotation
			JOINT RightAnkle
			{
				OFFSET	0.000000	-41.500000	0.000000
				CHANNELS	3	Zrotation	Xrotation	Yrotation
				End Site
				{
					OFFSET	0.000000	0.000000	22.875000
				}
			}
		}
	}
	JOINT Chest
	{
		OFFSET	0.000000	16.666667	0.000000
		CHANNELS	3	Zrotation	Xrotation	Yrotation
		JOINT LeftCollar
		{
			OFFSET	4.625000	33.333333	1.541667
			CHANNELS	3	Zrotation	Xrotation	Yrotation
			JOINT LeftShoulder
			{
				OFFSET	13.875000	0.000000	0.000000
				CHANNELS	3	Zrotation	Xrotation	Yrotation
				JOINT LeftElbow
				{
					OFFSET	0.000000	-28.000000	0.000000
					CHANNELS	3	Zrotation	Xrotation	Yrotation
					JOINT LeftWrist
					{
						OFFSET	0.000000	-25.000000	0.000000
						CHANNELS	3	Zrotation	Xrotation	Yrotation
						End Site
						{
							OFFSET	0.000000	-7.500000	0.000000
						}
					}
				}
			}
		}
		JOINT RightCollar
		{
			OFFSET	-4.625000	33.333333	1.541667
			CHANNELS	3	Zrotation	Xrotation	Yrotation
			JOINT RightShoulder
			{
				OFFSET	-13.875000	0.000000	0.000000
				CHANNELS	3	Zrotation	Xrotation	Yrotation
				JOINT RightElbow
				{
					OFFSET	0.000000	-28.000000	0.000000
					CHANNELS	3	Zrotation	Xrotation	Yrotation
					JOINT RightWrist
					{
						OFFSET	0.000000	-25.000000	0.000000
						CHANNELS	3	Zrotation	Xrotation	Yrotation
						End Site
						{
							OFFSET	0.000000	-7.500000	0.000000
						}
					}
				}
			}
		}
		JOINT Neck
		{
			OFFSET	0.000000	33.333333	0.000000
			CHANNELS	3	Zrotation	Xrotation	Yrotation
			JOINT Head
			{
				OFFSET	0.000000	12.000000	0.000000
				CHANNELS	3	Zrotation	Xrotation	Yrotation
				End Site
				{
					OFFSET	0.000000	15.000000	0.000000
				}
			}
		}
	}
}
MOTION
Frames:	27
Frame Time:	0.012000
-39.76	102.91	-68.10	-1.96	-0.30	9.95	-0.02	-2.95	-0.85	0.00	5.64	0.00	4.78	28.44	0.70	-0.89	-5.03	-7.54	0.00	5.98	0.00	-11.34	30.21	10.76	-1.21	-4.97	5.62	0.00	0.00	0.00	38.40	-73.51	27.99	-2.80	-9.24	5.71	1.89	-1.55	0.00	0.00	0.00	0.00	-82.92	-66.03	-109.65	49.96	83.17	54.21	-2.84	8.44	0.00	0.00	0.00	0.00	-1.18	12.98	-13.17
-39.79	102.91	-68.09	-1.96	-0.30	9.95	0.01	-2.94	-0.90	0.00	5.66	0.00	4.80	28.44	0.70	-0.89	-5.04	-7.58	0.00	5.99	0.00	-11.34	30.19	10.76	-1.20	-5.01	5.69	0.00	0.00	0.00	38.54	-73.40	28.17	-2.79	-9.27	5.64	1.90	-1.55	0.00	0.00	0.00	0.00	-81.42	-65.33	-109.39	62.56	84.77	42.30	-2.76	8.67	0.00	0.00	0.00	0.00	-1.17	13.02	-13.24
-39.82	102.91	-68.05	-1.96	-0.25	10.00	0.04	-2.97	-0.93	0.00	5.70	0.00	4.84	28.41	0.68	-0.89	-5.05	-7.62	0.00	6.03	0.00	-11.35	30.17	10.78	-1.20	-5.05	5.77	0.00	0.00	0.00	38.66	-73.24	28.37	-2.81	-9.39	5.52	1.91	-1.55	0.00	0.00	0.00	0.00	-79.93	-64.69	-109.08	83.07	85.93	22.44	-2.74	8.90	0.00	0.00	0.00	0.00	-1.07	13.13	-13.30
-39.87	102.92	-67.95	-1.96	-0.25	10.00	0.06	-2.96	-0.95	0.00	5.69	0.00	4.83	28.41	0.69	-0.88	-5.06	-7.65	0.00	6.05	0.00	-11.36	30.19	10.78	-1.20	-5.08	5.86	0.00	0.00	0.00	38.66	-73.13	28.46	-2.79	-9.43	5.48	1.89	-1.54	0.00	0.00	0.00	0.00	-78.31	-64.10	-108.65	111.08	86.28	-4.95	-2.81	9.15	0.00	0.00	0.00	0.00	-1.05	13.17	-13.39
-39.90	102.92	-67.95	-1.96	-0.25	10.00	0.09	-2.93	-0.99	0.00	5.70	0.00	4.82	28.42	0.72	-0.88	-5.06	-7.67	0.00	6.07	0.00	-11.38	30.20	10.78	-1.22	-5.12	5.95	0.00	0.00	0.00	38.78	-73.02	28.70	-2.78	-9.40	5.38	1.87	-1.52	0.00	0.00	0.00	0.00	-76.76	-63.50	-108.14	135.74	85.74	-28.95	-2.96	9.40	0.00	0.00	0.00	0.00	-1.00	13.20	-13.49
-39.92	102.92	-67.89	-1.96	-0.23	9.98	0.11	-2.96	-1.00	0.00	5.74	0.00	4.78	28.42	0.77	-0.88	-5.07	-7.71	0.00	6.08	0.00	-11.40	30.16	10.79	-1.20	-5.14	6.06	0.00	0.00	0.00	38.98	-72.88	28.96	-2.78	-9.43	5.33	1.84	-1.51	0.00	0.00	0.00	0.00	-75.18	-62.98	-107.61	151.98	84.77	-44.66	-3.06	9.63	0.00	0.00	0.00	0.00	-0.89	13.36	-13.42
-39.94	102.92	-67.88	-1.96	-0.23	9.98	0.13	-2.98	-1.02	0.00	5.75	0.00	4.79	28.44	0.78	-0.86	-5.07	-7.70	0.00	6.07	0.00	-11.40	30.13	10.79	-1.21	-5.17	6.18	0.00	0.00	0.00	39.18	-72.74	29.23	-2.78	-9.50	5.28	1.82	-1.50	0.00	0.00	0.00	0.00	-73.52	-62.49	-106.94	161.60	83.55	-53.75	-3.07	9.81	0.00	0.00	0.00	0.00	-0.85	13.40	-13.54
-39.97	102.93	-67.89	-1.96	-0.23	9.98	0.15	-2.99	-1.06	0.00	5.73	0.00	4.80	28.45	0.79	-0.84	-5.08	-7.73	0.00	6.10	0.00	-11.41	30.08	10.83	-1.22	-5.21	6.29	0.00	0.00	0.00	39.41	-72.61	29.53	-2.79	-9.56	5.24	1.81	-1.50	0.00	0.00	0.00	0.00	-72.05	-62.00	-106.32	167.52	82.33	-59.21	-3.07	9.93	0.00	0.00	0.00	0.00	-0.81	13.43	-13.65
-40.00	102.93	-67.92	-1.94	-0.19	9.95	0.17	-3.00	-1.08	0.00	5.71	0.00	4.80	28.46	0.79	-0.83	-5.09	-7.76	0.00	6.13	0.00	-11.43	30.06	10.85	-1.21	-5.25	6.40	0.00	0.00	0.00	39.61	-72.46	29.76	-2.81	-9.62	5.20	1.80	-1.51	0.00	0.00	0.00	0.00	-70.59	-61.54	-105.68	171.37	81.18	-62.66	-3.08	9.99	0.00	0.00	0.00	0.00	-0.61	13.51	-13.64
-40.07	102.93	-67.88	-1.94	-0.19	9.95	0.19	-3.01	-1.09	0.00	5.70	0.00	4.81	28.48	0.81	-0.82	-5.09	-7.78	0.00	6.15	0.00	-11.41	30.05	10.85	-1.21	-5.28	6.50	0.00	0.00	0.00	39.79	-72.32	29.99	-2.82	-9.68	5.18	1.79	-1.51	0.00	0.00	0.00	0.00	-69.23	-61.11	-105.04	174.03	80.11	-64.97	-3.19	10.06	0.00	0.00	0.00	0.00	-0.57	13.54	-13.74
-40.10	102.94	-67.90	-1.94	-0.19	9.95	0.20	-3.02	-1.09	0.00	5.69	0.00	4.82	28.49	0.79	-0.81	-5.11	-7.80	0.00	6.18	0.00	-11.40	30.02	10.85	-1.22	-5.31	6.60	0.00	0.00	0.00	40.00	-72.18	30.26	-2.83	-9.73	5.13	1.78	-1.51	0.00	0.00	0.00	0.00	-67.99	-60.70	-104.44	175.80	79.14	-66.40	-3.36	10.16	0.00	0.00	0.00	0.00	-0.54	13.57	-13.84
-40.13	102.94	-67.93	-1.92	-0.11	9.85	0.22	-3.03	-1.09	0.00	5.68	0.00	4.82	28.50	0.81	-0.79	-5.11	-7.79	0.00	6.19	0.00	-11.38	30.04	10.83	-1.23	-5.34	6.69	0.00	0.00	0.00	40.14	-72.05	30.46	-2.83	-9.77	5.12	1.78	-1.51	0.00	0.00	0.00	0.00	-66.87	-60.33	-103.90	177.01	78.27	-67.32	-3.56	10.31	0.00	0.00	0.00	0.00	-0.44	13.71	-13.87
-40.16	102.94	-67.84	-1.92	-0.11	9.85	0.23	-3.04	-1.08	0.00	5.67	0.00	4.81	28.49	0.82	-0.77	-5.11	-7.80	0.00	6.21	0.00	-11.37	30.03	10.83	-1.22	-5.38	6.77	0.00	0.00	0.00	40.35	-71.93	30.69	-2.85	-9.82	5.05	1.79	-1.51	0.00	0.00	0.00	0.00	-65.94	-59.99	-103.50	177.76	77.57	-67.83	-3.73	10.48	0.00	0.00	0.00	0.00	-0.43	13.75	-13.95
-40.18	102.94	-67.86	-1.92	-0.11	9.85	0.24	-3.05	-1.07	0.00	5.66	0.00	4.80	28.50	0.86	-0.76	-5.12	-7.79	0.00	6.22	0.00	-11.34	30.06	10.82	-1.21	-5.41	6.84	0.00	0.00	0.00	40.35	-71.93	30.69	-2.85	-9.82	5.05	1.79	-1.51	0.00	0.00	0.00	0.00	-65.12	-59.71	-103.18	178.37	76.97	-68.21	-3.84	10.64	0.00	0.00	0.00	0.00	-0.41	13.78	-14.02
-40.21	102.94	-67.89	-1.94	-0.10	9.68	0.25	-3.06	-1.04	0.00	5.65	0.00	4.81	28.53	0.85	-0.75	-5.13	-7.77	0.00	6.21	0.00	-11.30	30.07	10.78	-1.21	-5.43	6.90	0.00	0.00	0.00	40.67	-71.77	31.06	-2.87	-9.84	4.97	1.79	-1.50	0.00	0.00	0.00	0.00	-64.42	-59.44	-102.91	178.77	76.49	-68.40	-3.91	10.75	0.00	0.00	0.00	0.00	-0.34	14.02	-14.00
-40.14	102.94	-67.95	-1.94	-0.10	9.68	0.26	-3.07	-1.02	0.00	5.65	0.00	4.82	28.54	0.85	-0.73	-5.12	-7.72	0.00	6.17	0.00	-11.27	30.07	10.76	-1.21	-5.45	6.94	0.00	0.00	0.00	40.75	-71.67	31.19	-2.87	-9.84	4.92	1.80	-1.50	0.00	0.00	0.00	0.00	-63.87	-59.21	-102.73	179.16	76.11	-68.65	-3.98	10.84	0.00	0.00	0.00	0.00	-0.32	14.04	-14.05
-40.18	102.94	-67.96	-1.94	-0.10	9.68	0.28	-3.09	-0.98	0.00	5.67	0.00	4.83	28.55	0.85	-0.72	-5.13	-7.70	0.00	6.16	0.00	-11.23	30.11	10.74	-1.21	-5.47	6.98	0.00	0.00	0.00	40.93	-71.54	31.42	-2.87	-9.89	4.90	1.81	-1.52	0.00	0.00	0.00	0.00	-63.40	-59.04	-102.60	179.52	75.81	-68.92	-4.05	10.91	0.00	0.00	0.00	0.00	-0.32	14.06	-14.09
-40.21	102.94	-67.96	-1.99	-0.07	9.51	0.29	-3.10	-0.94	0.00	5.69	0.00	4.82	28.56	0.87	-0.70	-5.13	-7.68	0.00	6.15	0.00	-11.21	30.15	10.72	-1.21	-5.49	7.02	0.00	0.00	0.00	40.95	-71.44	31.50	-2.84	-9.91	4.90	1.81	-1.51	0.00	0.00	0.00	0.00	-63.05	-58.89	-102.52	179.87	75.59	-69.20	-4.12	10.99	0.00	0.00	0.00	0.00	-0.19	14.23	-14.08
-40.09	102.94	-67.98	-1.99	-0.07	9.51	0.30	-3.12	-0.90	0.00	5.71	0.00	4.82	28.57	0.88	-0.70	-5.12	-7.66	0.00	6.13	0.00	-11.20	30.18	10.71	-1.19	-5.50	7.05	0.00	0.00	0.00	41.03	-71.35	31.65	-2.84	-9.90	4.88	1.82	-1.51	0.00	0.00	0.00	0.00	-62.79	-58.81	-102.52	-179.84	75.44	-69.50	-4.18	11.06	0.00	0.00	0.00	0.00	-0.20	14.25	-14.11
-40.13	102.95	-67.98	-1.99	-0.07	9.51	0.31	-3.13	-0.85	0.00	5.71	0.00	4.82	28.60	0.89	-0.68	-5.13	-7.61	0.00	6.11	0.00	-11.19	30.20	10.68	-1.18	-5.51	7.08	0.00	0.00	0.00	41.11	-71.28	31.79	-2.82	-9.84	4.83	1.83	-1.49	0.00	0.00	0.00	0.00	-62.59	-58.74	-102.52	-179.58	75.36	-69.79	-4.23	11.14	0.00	0.00	0.00	0.00	-0.20	14.26	-14.14
-40.16	102.95	-67.98	-2.04	-0.06	9.39	0.32	-3.14	-0.80	0.00	5.73	0.00	4.84	28.59	0.90	-0.68	-5.14	-7.58	0.00	6.09	0.00	-11.17	30.19	10.69	-1.19	-5.53	7.10	0.00	0.00	0.00	41.16	-71.23	31.89	-2.81	-9.86	4.83	1.82	-1.50	0.00	0.00	0.00	0.00	-62.51	-58.69	-102.58	-179.43	75.34	-69.98	-4.27	11.21	0.00	0.00	0.00	0.00	-0.06	14.37	-14.18
-40.07	102.96	-68.00	-2.04	-0.06	9.39	0.33	-3.16	-0.75	0.00	5.74	0.00	4.84	28.59	0.90	-0.67	-5.16	-7.55	0.00	6.07	0.00	-11.15	30.20	10.68	-1.20	-5.55	7.11	0.00	0.00	0.00	41.17	-71.17	31.96	-2.81	-9.87	4.81	1.81	-1.50	0.00	0.00	0.00	0.00	-62.49	-58.67	-102.65	-179.33	75.36	-70.09	-4.28	11.25	0.00	0.00	0.00	0.00	-0.04	14.38	-14.20
-40.10	102.96	-67.99	-2.04	-0.06	9.39	0.34	-3.15	-0.71	0.00	5.78	0.00	4.85	28.60	0.92	-0.66	-5.17	-7.50	0.00	6.04	0.00	-11.11	30.41	10.76	-1.22	-5.56	7.12	0.00	0.00	0.00	41.16	-71.12	32.00	-2.81	-9.89	4.80	1.79	-1.49	0.00	0.00	0.00	0.00	-62.55	-58.67	-102.74	-179.29	75.44	-70.19	-4.26	11.28	0.00	0.00	0.00	0.00	-0.02	14.39	-14.21
-40.13	102.97	-67.95	-2.07	-0.03	9.28	0.34	-3.17	-0.67	0.00	5.84	0.00	4.86	28.58	0.93	-0.66	-5.19	-7.45	0.00	5.99	0.00	-11.10	30.42	10.72	-1.23	-5.57	7.14	0.00	0.00	0.00	41.18	-71.06	32.06	-2.81	-9.93	4.80	1.77	-1.48	0.00	0.00	0.00	0.00	-62.62	-58.68	-102.81	-179.30	75.53	-70.25	-4.23	11.28	0.00	0.00	0.00	0.00	0.16	14.39	-14.34
-40.05	102.98	-67.92	-2.07	-0.03	9.28	0.35	-3.18	-0.63	0.00	5.90	0.00	4.86	28.55	0.94	-0.67	-5.22	-7.43	0.00	5.99	0.00	-11.08	30.42	10.71	-1.28	-5.59	7.15	0.00	0.00	0.00	41.21	-71.04	32.14	-2.82	-9.95	4.79	1.75	-1.47	0.00	0.00	0.00	0.00	-62.74	-58.69	-102.88	-179.47	75.62	-70.11	-4.20	11.26	0.00	0.00	0.00	0.00	0.22	14.40	-14.36
-40.07	102.99	-67.88	-2.07	-0.03	9.28	0.36	-3.19	-0.60	0.00	5.95	0.00	4.87	28.50	0.93	-0.67	-5.24	-7.39	0.00	5.96	0.00	-11.10	30.25	10.62	-1.29	-5.60	7.16	0.00	0.00	0.00	41.19	-71.02	32.13	-2.82	-9.97	4.82	1.75	-1.47	0.00	0.00	0.00	0.00	-62.90	-58.73	-102.99	-179.49	75.79	-70.19	-4.17	11.24	0.00	0.00	0.00	0.00	0.23	14.41	-14.37
-40.09	103.00	-67.85	-2.10	-0.05	9.22	0.37	-3.20	-0.58	0.00	6.01	0.00	4.87	28.46	0.93	-0.67	-5.27	-7.37	0.00	5.93	0.00	-11.09	30.31	10.62	-1.29	-5.61	7.16	0.00	0.00	0.00	41.18	-71.00	32.10	-2.84	-9.97	4.84	1.74	-1.47	0.00	0.00	0.00	0.00	-63.19	-58.81	-103.18	-179.28	76.00	-70.57	-4.14	11.19	0.00	0.00	0.00	0.00	0.35	14.39	-14.45
